<?xml version="1.0" encoding="UTF-8" standalone="no"?>
<!-- Generator: Adobe Illustrator 27.5.0, SVG Export Plug-In . SVG Version: 6.00 Build 0)  -->

<svg
   version="1.1"
   id="PRINT"
   x="0px"
   y="0px"
   viewBox="0 0 500 500"
   style="enable-background:new 0 0 500 500;"
   xml:space="preserve"
   sodipodi:docname="logo.svg"
   inkscape:version="1.4.2 (f4327f4, 2025-05-13)"
   xmlns:inkscape="http://www.inkscape.org/namespaces/inkscape"
   xmlns:sodipodi="http://sodipodi.sourceforge.net/DTD/sodipodi-0.dtd"
   xmlns="http://www.w3.org/2000/svg"
   xmlns:svg="http://www.w3.org/2000/svg"><defs
   id="defs6" /><sodipodi:namedview
   id="namedview6"
   pagecolor="#ffffff"
   bordercolor="#000000"
   borderopacity="0.25"
   inkscape:showpageshadow="2"
   inkscape:pageopacity="0.0"
   inkscape:pagecheckerboard="0"
   inkscape:deskcolor="#d1d1d1"
   showgrid="false"
   inkscape:zoom="1.1412703"
   inkscape:cx="194.95819"
   inkscape:cy="232.19739"
   inkscape:window-width="933"
   inkscape:window-height="1032"
   inkscape:window-x="8"
   inkscape:window-y="15"
   inkscape:window-maximized="0"
   inkscape:current-layer="g6" />
<g
   id="g6"
   transform="translate(1.7524332,1.7524332)">
	<rect
   id="CUSTOM-Background"
   style="fill:#f2f2f2"
   width="500"
   height="500"
   x="-2.6286497"
   y="-0.87621659" />
	<g
   id="CUSTOM-group">
		<path
   d="m 421.096,236.336 -9.309,-9.309 -21.724,21.723 9.311,9.311 z"
   id="path1" />
		<path
   d="m 428.853,228.578 c 0.857,-0.857 0.857,-2.246 0,-3.103 l -6.206,-6.206 c -0.857,-0.857 -2.246,-0.857 -3.103,0 l -4.655,4.654 9.309,9.309 z"
   id="path2" />
		<path
   d="m 384.838,266.229 10.999,-5.499 -8.445,-8.445 -5.499,10.999 c -0.422,0.844 -0.257,1.864 0.411,2.533 0.67,0.669 1.691,0.834 2.534,0.412 z"
   id="path3" />
		<path
   style="fill:#ffc943"
   d="m 432.278,270.849 h -4.535 v 6.583 c 0,1.213 -0.981,2.194 -2.194,2.194 -1.213,0 -2.194,-0.981 -2.194,-2.194 v -6.583 h -4.389 v 6.583 c 0,1.213 -0.981,2.194 -2.194,2.194 -1.213,0 -2.194,-0.981 -2.194,-2.194 v -6.583 h -4.389 v 6.583 c 0,1.213 -0.982,2.194 -2.194,2.194 -1.213,0 -2.194,-0.981 -2.194,-2.194 v -6.583 h -4.389 v 6.583 c 0,1.213 -0.981,2.194 -2.194,2.194 -1.213,0 -2.194,-0.981 -2.194,-2.194 v -6.583 h -4.389 v 6.583 c 0,1.213 -0.982,2.194 -2.194,2.194 -1.213,0 -2.194,-0.981 -2.194,-2.194 v -6.583 h -6.583 v 17.701 h 50.615 c 1.213,0 2.194,-0.982 2.194,-2.194 v -13.312 c -0.001,-1.214 -0.982,-2.195 -2.195,-2.195 z"
   id="path4" />
		<path
   style="fill:#ffc943"
   d="m 375.08,213.651 h -13.312 c -1.212,0 -2.194,0.982 -2.194,2.194 v 70.51 c 0,1.212 0.982,2.194 2.194,2.194 h 15.506 v -8.924 h -6.583 c -1.213,0 -2.194,-0.981 -2.194,-2.194 0,-1.213 0.981,-2.194 2.194,-2.194 h 6.583 v -4.389 h -6.583 c -1.213,0 -2.194,-0.982 -2.194,-2.194 0,-1.213 0.981,-2.194 2.194,-2.194 h 6.583 v -4.389 h -6.583 c -1.213,0 -2.194,-0.981 -2.194,-2.194 0,-1.213 0.981,-2.194 2.194,-2.194 h 6.583 v -4.389 h -6.583 c -1.213,0 -2.194,-0.981 -2.194,-2.194 0,-1.213 0.981,-2.194 2.194,-2.194 h 6.583 v -4.389 h -6.583 c -1.213,0 -2.194,-0.981 -2.194,-2.194 0,-1.213 0.981,-2.194 2.194,-2.194 h 6.583 v -4.389 h -6.583 c -1.213,0 -2.194,-0.981 -2.194,-2.194 0,-1.213 0.981,-2.194 2.194,-2.194 h 6.583 v -4.389 h -6.583 c -1.213,0 -2.194,-0.981 -2.194,-2.194 0,-1.213 0.981,-2.194 2.194,-2.194 h 6.583 v -6.729 c 0,-1.213 -0.982,-2.195 -2.194,-2.195 z"
   id="path5" />
	</g>
	<text
   style="font-size:61.0197px;font-family:Poppins-Bold"
   id="text5"
   x="71.960838"
   y="260.14896">ArQuimia</text>
	<text
   style="font-size:18.5662px;font-family:Quicksand-Bold"
   id="text6"
   x="204.00739"
   y="283.96191">Design company</text>
</g>
</svg>
